<?xml version="1.0" standalone="no"?>
<!DOCTYPE svg PUBLIC "-//W3C//DTD SVG 20010904//EN"
 "http://www.w3.org/TR/2001/REC-SVG-20010904/DTD/svg10.dtd">
<svg version="1.0" xmlns="http://www.w3.org/2000/svg"
 width="512.000000pt" height="512.000000pt" viewBox="0 0 512.000000 512.000000"
 preserveAspectRatio="xMidYMid meet">

<g transform="translate(0.000000,512.000000) scale(0.100000,-0.100000)"
fill="#000000" stroke="none">
<path d="M2340 5109 c-208 -21 -487 -98 -681 -187 -113 -52 -272 -148 -389
-236 -109 -81 -301 -268 -383 -372 -259 -330 -419 -730 -456 -1144 -7 -69 -11
-445 -11 -942 l0 -828 -40 0 c-52 0 -93 -21 -108 -55 -8 -18 -12 -106 -12
-285 l0 -260 -90 0 c-102 0 -139 -13 -158 -55 -17 -37 -17 -653 0 -690 27 -59
-152 -55 2548 -55 2700 0 2521 -4 2548 55 17 37 17 653 0 690 -19 42 -56 55
-158 55 l-90 0 0 260 c0 179 -4 267 -12 285 -15 34 -56 55 -107 55 l-40 0 -3
291 -3 291 -34 30 c-29 26 -39 30 -75 25 -27 -4 -49 -15 -63 -32 -23 -26 -23
-30 -23 -316 l0 -289 -99 0 -100 0 -4 888 c-4 853 -5 891 -25 998 -55 287
-179 561 -355 779 -583 724 -1615 866 -2371 327 -107 -77 -274 -237 -357 -345
-172 -223 -287 -478 -341 -761 -21 -107 -21 -144 -25 -998 l-4 -888 -100 0
-100 0 4 893 c3 970 2 948 63 1177 204 774 857 1342 1650 1435 589 69 1170
-133 1589 -551 377 -378 575 -866 575 -1421 0 -129 11 -163 59 -183 39 -16 82
-5 112 26 22 23 24 36 27 137 21 650 -267 1291 -768 1709 -443 371 -1012 545
-1590 487z m495 -614 c203 -37 446 -139 618 -262 102 -73 267 -234 340 -333
163 -221 267 -488 297 -762 6 -60 10 -414 10 -918 l0 -820 -1540 0 -1540 0 0
820 c0 863 3 940 45 1118 68 283 206 527 419 737 257 253 527 380 931 439 62
9 333 -3 420 -19z m1825 -3495 l0 -200 -2100 0 -2100 0 0 200 0 200 2100 0
2100 0 0 -200z m260 -600 l0 -200 -2360 0 -2360 0 0 200 0 200 2360 0 2360 0
0 -200z"/>
<path d="M1569 3631 l-29 -29 0 -482 0 -482 29 -29 c22 -21 39 -29 66 -29 86
0 99 26 105 218 l5 152 150 -171 c82 -94 159 -178 170 -185 23 -16 78 -18 106
-4 29 16 52 68 45 103 -4 17 -34 62 -68 101 -34 39 -91 103 -126 143 l-63 71
60 28 c193 86 257 319 135 487 -82 112 -151 137 -387 137 l-169 0 -29 -29z
m386 -191 c42 -26 69 -81 61 -124 -15 -78 -78 -115 -198 -116 l-78 0 0 130 0
130 91 0 c74 0 98 -4 124 -20z"/>
<path d="M2549 3631 l-29 -29 0 -482 0 -482 29 -29 c31 -31 83 -39 122 -19 48
26 49 38 49 530 0 492 -1 504 -49 530 -39 20 -91 12 -122 -19z"/>
<path d="M3049 3631 l-29 -29 0 -482 0 -482 29 -29 c22 -21 39 -29 66 -29 89
0 105 34 105 228 l0 149 114 5 c100 5 122 9 179 36 78 36 141 98 176 172 22
47 26 69 26 145 0 78 -4 97 -28 147 -36 73 -119 150 -192 177 -49 18 -78 21
-236 21 l-181 0 -29 -29z m399 -191 c65 -40 91 -125 57 -190 -8 -16 -31 -41
-51 -57 -33 -25 -46 -28 -135 -31 l-99 -4 0 151 0 151 98 0 c79 0 103 -4 130
-20z"/>
<path d="M2002 2265 c-44 -19 -67 -73 -52 -120 22 -68 -7 -65 670 -65 l612 0
29 29 c57 57 28 149 -52 165 -18 3 -289 6 -603 6 -472 -1 -577 -3 -604 -15z"/>
<path d="M1613 1873 c-12 -2 -34 -18 -48 -34 -35 -43 -34 -92 4 -130 l29 -29
1022 0 1021 0 24 24 c47 47 43 112 -9 150 -27 21 -34 21 -1024 22 -548 1
-1007 -1 -1019 -3z"/>
<path d="M4554 2480 c-73 -29 -69 -149 5 -180 66 -27 136 20 136 92 0 70 -73
116 -141 88z"/>
</g>
</svg>
